<?xml version="1.0" standalone="no"?><!DOCTYPE svg PUBLIC "-//W3C//DTD SVG 1.1//EN" "http://www.w3.org/Graphics/SVG/1.1/DTD/svg11.dtd"><svg t="1575992900892" class="icon" viewBox="0 0 1024 1024" version="1.1" xmlns="http://www.w3.org/2000/svg" p-id="1838" xmlns:xlink="http://www.w3.org/1999/xlink" width="200" height="200"><defs><style type="text/css"></style></defs><path d="M298.666667 345.6C298.666667 320 320 298.666667 349.866667 298.666667c25.6 0 51.2 21.333333 51.2 46.933333v34.133333c0 25.6-21.333333 46.933333-51.2 46.933334-29.866667 4.266667-51.2-17.066667-51.2-46.933334v-34.133333zM298.666667 512c0-25.6 21.333333-46.933333 51.2-46.933333 25.6 0 51.2 21.333333 51.2 46.933333v34.133333c0 25.6-21.333333 46.933333-51.2 46.933334S298.666667 571.733333 298.666667 546.133333V512z m162.133333-166.4c0-25.6 25.6-46.933333 51.2-46.933333s51.2 21.333333 51.2 46.933333v34.133333c0 25.6-21.333333 46.933333-51.2 46.933334-25.6 0-51.2-21.333333-51.2-46.933334v-34.133333z m0 166.4c0-25.6 21.333333-46.933333 51.2-46.933333 25.6 0 51.2 21.333333 51.2 46.933333v34.133333c0 25.6-21.333333 46.933333-51.2 46.933334-25.6 0-51.2-21.333333-51.2-46.933334V512z m166.4-166.4c0-25.6 21.333333-46.933333 51.2-46.933333 25.6 0 46.933333 21.333333 46.933333 46.933333v34.133333c0 25.6-21.333333 46.933333-51.2 46.933334-25.6 0-51.2-21.333333-51.2-46.933334v-34.133333z m0 166.4c0-25.6 21.333333-46.933333 51.2-46.933333 25.6-4.266667 46.933333 21.333333 46.933333 46.933333v34.133333c0 25.6-21.333333 46.933333-51.2 46.933334-25.6 0-51.2-21.333333-51.2-46.933334V512z m-311.466667 179.2c0-17.066667 17.066667-34.133333 34.133334-34.133333h328.533333c17.066667 0 34.133333 12.8 34.133333 34.133333 0 17.066667-17.066667 34.133333-34.133333 34.133333H349.866667c-21.333333 0-34.133333-12.8-34.133334-34.133333z" p-id="1839"></path><path d="M810.666667 853.333333H213.333333c-72.533333 0-128-55.466667-128-128V298.666667c0-72.533333 55.466667-128 128-128h597.333334c72.533333 0 128 55.466667 128 128v426.666666c0 72.533333-55.466667 128-128 128zM213.333333 256c-25.6 0-42.666667 17.066667-42.666666 42.666667v426.666666c0 25.6 17.066667 42.666667 42.666666 42.666667h597.333334c25.6 0 42.666667-17.066667 42.666666-42.666667V298.666667c0-25.6-17.066667-42.666667-42.666666-42.666667H213.333333z" p-id="1840"></path></svg>